<svg width="25" height="25" viewBox="0 0 25 25" fill="none" xmlns="http://www.w3.org/2000/svg">
<g clip-path="url(#clip0_132_108)">
<path fill-rule="evenodd" clip-rule="evenodd" d="M14.2857 1.78571C14.2857 0.799491 13.4862 0 12.5 0C11.5138 0 10.7143 0.799491 10.7143 1.78571V2.79591C8.53516 3.16423 6.50723 4.20086 4.92386 5.78423C2.91454 7.79355 1.78571 10.5188 1.78571 13.3604V16.9685C1.83132 16.967 1.87711 16.9662 1.92307 16.9662H23.077C23.1229 16.9662 23.1687 16.967 23.2143 16.9685V13.3604C23.2143 10.5188 22.0855 7.79355 20.0761 5.78423C18.4929 4.20086 16.4648 3.16423 14.2857 2.79591V1.78571ZM1.92307 19.1984H23.077C24.1389 19.1984 25 20.0595 25 21.1214V23.0445C25 24.1066 24.1389 24.9677 23.077 24.9677H1.92307C0.860991 24.9677 0 24.1066 0 23.0445V21.1214C0 20.0595 0.860991 19.1984 1.92307 19.1984Z" fill="#DBD3CD"/>
</g>
<defs>
<clipPath id="clip0_132_108">
<rect width="25" height="25" fill="white"/>
</clipPath>
</defs>
</svg>
