<svg width="25" height="25" viewBox="0 0 25 25" fill="none" xmlns="http://www.w3.org/2000/svg">
<g clip-path="url(#clip0_132_100)">
<path fill-rule="evenodd" clip-rule="evenodd" d="M2.67857 1.34026C2.67857 0.600594 2.07895 0.000976562 1.33929 0.000976562C0.599618 0.000976562 0 0.600594 0 1.34026V16.8292V23.6617C0 24.4013 0.599618 25.001 1.33929 25.001H23.6607C24.4004 25.001 25 24.4013 25 23.6617C25 22.922 24.4004 22.3224 23.6607 22.3224H2.67857V17.3586L6.61143 13.1587C7.13096 13.4541 7.73191 13.6228 8.37229 13.6228C9.18216 13.6228 9.929 13.353 10.5278 12.8983L13.0697 15.269C12.9518 15.6238 12.8879 16.0033 12.8879 16.3976C12.8879 18.3726 14.4889 19.9735 16.4638 19.9735C18.4388 19.9735 20.0396 18.3726 20.0396 16.3976C20.0396 15.4756 19.6907 14.6352 19.1177 14.001L19.1213 13.9915L21.1902 8.30873C23.0123 8.14789 24.4411 6.61774 24.4411 4.75387C24.4411 2.78287 22.8432 1.18506 20.8723 1.18506C18.9013 1.18506 17.3035 2.78287 17.3035 4.75387C17.3035 5.87296 17.8186 6.87173 18.6246 7.52607L16.6939 12.829C16.6178 12.8242 16.5411 12.8218 16.4638 12.8218C15.8663 12.8218 15.303 12.9683 14.8079 13.2275L12.0515 10.6566C12.0055 10.6137 11.9573 10.5747 11.9073 10.5395C11.9288 10.3811 11.9399 10.2195 11.9399 10.0552C11.9399 8.08487 10.3426 6.4876 8.37229 6.4876C6.40195 6.4876 4.80466 8.08487 4.80466 10.0552C4.80466 10.3927 4.85154 10.7193 4.93911 11.0287C4.92137 11.0457 4.904 11.0633 4.88702 11.0814L2.67857 13.4398V1.34026Z" fill="#DBD3CD"/>
</g>
<defs>
<clipPath id="clip0_132_100">
<rect width="25" height="25" fill="white"/>
</clipPath>
</defs>
</svg>
