<svg width="25" height="25" viewBox="0 0 25 25" fill="none" xmlns="http://www.w3.org/2000/svg">
<g clip-path="url(#clip0_132_89)">
<path fill-rule="evenodd" clip-rule="evenodd" d="M10.7143 5.35714C10.7143 8.3158 8.3158 10.7143 5.35714 10.7143C2.39848 10.7143 0 8.3158 0 5.35714C0 2.39848 2.39848 0 5.35714 0C8.3158 0 10.7143 2.39848 10.7143 5.35714ZM25 5.35714C25 8.3158 22.6016 10.7143 19.6429 10.7143C16.6842 10.7143 14.2857 8.3158 14.2857 5.35714C14.2857 2.39848 16.6842 0 19.6429 0C22.6016 0 25 2.39848 25 5.35714ZM5.35714 25C8.3158 25 10.7143 22.6016 10.7143 19.6429C10.7143 16.6842 8.3158 14.2857 5.35714 14.2857C2.39848 14.2857 0 16.6842 0 19.6429C0 22.6016 2.39848 25 5.35714 25ZM25 19.6429C25 22.6016 22.6016 25 19.6429 25C16.6842 25 14.2857 22.6016 14.2857 19.6429C14.2857 16.6842 16.6842 14.2857 19.6429 14.2857C22.6016 14.2857 25 16.6842 25 19.6429Z" fill="#DBD3CD"/>
</g>
<defs>
<clipPath id="clip0_132_89">
<rect width="25" height="25" fill="white"/>
</clipPath>
</defs>
</svg>
